<svg width="17" height="18" viewBox="0 0 21 23" fill="none" xmlns="http://www.w3.org/2000/svg">
<path fill-rule="evenodd" clip-rule="evenodd" d="M7.68376 2.31981C7.8713 2.13227 8.12565 2.02692 8.39087 2.02692H12.3909C12.6561 2.02692 12.9104 2.13227 13.098 2.31981C13.2855 2.50735 13.3909 2.7617 13.3909 3.02692V4.02692H7.39087V3.02692C7.39087 2.7617 7.49623 2.50735 7.68376 2.31981ZM5.39087 4.02692V3.02692C5.39087 2.23127 5.70694 1.4682 6.26955 0.905596C6.83216 0.342987 7.59522 0.0269165 8.39087 0.0269165H12.3909C13.1865 0.0269165 13.9496 0.342987 14.5122 0.905596C15.0748 1.4682 15.3909 2.23127 15.3909 3.02692V4.02692H17.3909H19.3909C19.9432 4.02692 20.3909 4.47463 20.3909 5.02692C20.3909 5.5792 19.9432 6.02692 19.3909 6.02692H18.3909V19.0269C18.3909 19.8226 18.0748 20.5856 17.5122 21.1482C16.9496 21.7108 16.1865 22.0269 15.3909 22.0269H5.39087C4.59522 22.0269 3.83216 21.7108 3.26955 21.1482C2.70694 20.5856 2.39087 19.8226 2.39087 19.0269V6.02692H1.39087C0.838584 6.02692 0.390869 5.5792 0.390869 5.02692C0.390869 4.47463 0.838584 4.02692 1.39087 4.02692H3.39087H5.39087ZM4.39087 6.02692V19.0269C4.39087 19.2921 4.49623 19.5465 4.68376 19.734C4.8713 19.9216 5.12565 20.0269 5.39087 20.0269H15.3909C15.6561 20.0269 15.9104 19.9216 16.098 19.734C16.2855 19.5465 16.3909 19.2921 16.3909 19.0269V6.02692H14.3909H6.39087H4.39087ZM8.39087 9.02692C8.94315 9.02692 9.39087 9.47463 9.39087 10.0269V16.0269C9.39087 16.5792 8.94315 17.0269 8.39087 17.0269C7.83858 17.0269 7.39087 16.5792 7.39087 16.0269V10.0269C7.39087 9.47463 7.83858 9.02692 8.39087 9.02692ZM13.3909 16.0269V10.0269C13.3909 9.47463 12.9432 9.02692 12.3909 9.02692C11.8386 9.02692 11.3909 9.47463 11.3909 10.0269V16.0269C11.3909 16.5792 11.8386 17.0269 12.3909 17.0269C12.9432 17.0269 13.3909 16.5792 13.3909 16.0269Z" fill="white"/>
</svg>
