<svg width="20" height="20" viewBox="0 0 25 25" fill="none" xmlns="http://www.w3.org/2000/svg">
<path fill-rule="evenodd" clip-rule="evenodd" d="M1.90242 1.01C1.5119 0.619471 0.87873 0.619471 0.488206 1.01C0.0976815 1.40052 0.0976815 2.03368 0.488206 2.42421L4.76379 6.69979C2.95501 8.25677 1.44567 10.1356 0.314157 12.2443C0.160523 12.5306 0.155574 12.8737 0.300885 13.1643L1.19531 12.7171C0.300885 13.1643 0.301054 13.1647 0.301238 13.165L0.301683 13.1659L0.302852 13.1682L0.306303 13.1751L0.317651 13.1973C0.327188 13.2158 0.340669 13.2418 0.358066 13.2747C0.392853 13.3404 0.443336 13.4339 0.509284 13.5511C0.641104 13.7855 0.835163 14.1156 1.08965 14.5096C1.59738 15.2958 2.35215 16.3465 3.34078 17.401C5.29979 19.4907 8.2958 21.7171 12.1953 21.7171L12.2117 21.717C14.2801 21.6832 16.2915 21.0707 18.0214 19.9574L22.4882 24.4242C22.8787 24.8147 23.5119 24.8147 23.9024 24.4242C24.2929 24.0337 24.2929 23.4005 23.9024 23.01L18.8429 17.9505C18.8427 17.9503 18.8426 17.9502 18.8424 17.95L15.0264 14.134L15.0193 14.1269L10.7854 9.89302L10.7785 9.88607L6.96242 6.06999L1.90242 1.01ZM16.5667 18.5027L14.2451 16.1811C14.0863 16.2806 13.9204 16.369 13.7485 16.4457C13.2578 16.6643 12.7281 16.7818 12.191 16.7913C11.654 16.8008 11.1205 16.702 10.6224 16.5008C10.1243 16.2996 9.67189 16.0002 9.29205 15.6204C8.91222 15.2405 8.61278 14.7881 8.4116 14.29C8.21042 13.7919 8.11163 13.2585 8.1211 12.7214C8.13058 12.1843 8.24814 11.6546 8.46676 11.164C8.54337 10.992 8.63183 10.8261 8.73135 10.6674L6.18241 8.11841C4.64563 9.41847 3.34466 10.9753 2.33788 12.7203C2.44696 12.9086 2.59124 13.1482 2.76973 13.4246C3.23075 14.1384 3.91348 15.0877 4.79985 16.0332C6.58926 17.9419 9.09043 19.714 12.1872 19.7171C13.7326 19.6904 15.239 19.2695 16.5667 18.5027ZM10.2232 12.1592C10.159 12.3516 10.1244 12.5531 10.1208 12.7567C10.1161 13.0252 10.1655 13.2919 10.266 13.541C10.3666 13.79 10.5163 14.0162 10.7063 14.2061C10.8962 14.3961 11.1224 14.5458 11.3714 14.6464C11.6205 14.747 11.8872 14.7964 12.1558 14.7916C12.3593 14.788 12.5608 14.7534 12.7532 14.6892L10.2232 12.1592ZM20.9479 14.4047L12.2685 5.71743C15.3352 5.74507 17.8139 7.50572 19.5908 9.40104C20.4771 10.3465 21.1599 11.2958 21.6209 12.0096C21.7997 12.2865 21.9441 12.5263 22.0533 12.7149C21.7176 13.2991 21.3485 13.8633 20.9479 14.4047ZM24.0897 12.2699L23.1953 12.7171C24.0897 12.2699 24.0896 12.2696 24.0894 12.2692L24.0889 12.2683L24.0878 12.266L24.0843 12.2591L24.073 12.2369C24.0634 12.2184 24.05 12.1924 24.0326 12.1595C23.9978 12.0938 23.9473 12.0003 23.8813 11.8831C23.7495 11.6487 23.5555 11.3186 23.301 10.9246C22.7932 10.1384 22.0385 9.0877 21.0499 8.03316C19.091 5.94375 16.0954 3.71754 12.1965 3.7171C11.4124 3.71535 10.6308 3.80472 9.8674 3.98342C9.51407 4.06613 9.23327 4.33375 9.1337 4.68271C9.03412 5.03166 9.1314 5.40717 9.38788 5.66389L20.3279 16.6139C20.5259 16.8121 20.7981 16.9182 21.078 16.9062C21.358 16.8942 21.6201 16.7654 21.8005 16.5509C22.6743 15.5124 23.4374 14.3855 24.0772 13.1885C24.2301 12.9025 24.2348 12.56 24.0897 12.2699ZM12.1965 3.7171H12.1953V4.7171L12.1977 3.7171L12.1965 3.7171Z" fill="white"/>
</svg>
