<svg width="25" height="29" viewBox="0 0 49 58" fill="none" xmlns="http://www.w3.org/2000/svg">
<path fill-rule="evenodd" clip-rule="evenodd" d="M24.3963 57.6148C24.3963 57.6148 48.1201 42.0127 48.1201 23.8103C48.1201 17.6034 45.6206 11.6507 41.1716 7.26176C36.7225 2.87282 30.6883 0.407135 24.3963 0.407135C18.1044 0.407135 12.0702 2.87282 7.62113 7.26176C3.17207 11.6507 0.672607 17.6034 0.672607 23.8103C0.672607 42.0127 24.3963 57.6148 24.3963 57.6148ZM32.3043 23.8103C32.3043 28.1187 28.7638 31.6113 24.3963 31.6113C20.0289 31.6113 16.4884 28.1187 16.4884 23.8103C16.4884 19.5019 20.0289 16.0092 24.3963 16.0092C28.7638 16.0092 32.3043 19.5019 32.3043 23.8103Z" fill="#FF3969"/>
</svg>
