<svg width="20" height="20" viewBox="0 0 21 21" fill="none" xmlns="http://www.w3.org/2000/svg">
<path d="M19.1125 10.3811C19.116 11.701 18.8076 13.003 18.2125 14.1811C17.507 15.5928 16.4223 16.7803 15.08 17.6104C13.7377 18.4405 12.1908 18.8805 10.6125 18.8811C9.29268 18.8845 7.99066 18.5762 6.81255 17.9811L1.11255 19.8811L3.01255 14.1811C2.41748 13.003 2.10911 11.701 2.11255 10.3811C2.11316 8.80286 2.55316 7.25595 3.38327 5.91365C4.21338 4.57135 5.4008 3.48667 6.81255 2.7811C7.99066 2.18603 9.29268 1.87766 10.6125 1.8811H11.1125C13.1969 1.99609 15.1656 2.87586 16.6417 4.35196C18.1178 5.82806 18.9976 7.79675 19.1125 9.8811V10.3811Z" stroke="white" stroke-width="2" stroke-linecap="round" stroke-linejoin="round"/>
</svg>