<svg width="25" height="25" viewBox="0 0 34 34" fill="none" xmlns="http://www.w3.org/2000/svg">
<path d="M16.5413 0.596069C25.9133 0.596069 33.0083 8.2801 33.0083 17.0713C33.0083 27.2671 24.6923 33.5961 16.5083 33.5961C13.8023 33.5961 10.7993 32.869 8.3903 31.4478C7.5488 30.9356 6.8393 30.5555 5.9318 30.853L2.5988 31.8444C1.7573 32.1088 0.998301 31.4478 1.2458 30.5555L2.3513 26.854C2.5328 26.3417 2.4998 25.7964 2.2358 25.3667C0.816801 22.7558 0.00830078 19.897 0.00830078 17.1209C0.00830078 8.42882 6.9548 0.596069 16.5413 0.596069ZM24.0818 15.0222C22.9103 15.0222 21.9698 15.9641 21.9698 17.1374C21.9698 18.2941 22.9103 19.2526 24.0818 19.2526C25.2533 19.2526 26.1938 18.2941 26.1938 17.1374C26.1938 15.9641 25.2533 15.0222 24.0818 15.0222ZM16.4753 15.0222C15.3203 15.0057 14.3633 15.9641 14.3633 17.1209C14.3633 18.2941 15.3038 19.236 16.4753 19.2526C17.6468 19.2526 18.5873 18.2941 18.5873 17.1374C18.5873 15.9641 17.6468 15.0222 16.4753 15.0222ZM8.8688 15.0222C7.6973 15.0222 6.7568 15.9641 6.7568 17.1374C6.7568 18.2941 7.7138 19.2526 8.8688 19.2526C10.0403 19.236 10.9808 18.2941 10.9808 17.1374C10.9808 15.9641 10.0403 15.0222 8.8688 15.0222Z" fill="white"/>
</svg>
